<?xml version="1.0" encoding="UTF-8"?>
<svg id="Layer_1" xmlns="http://www.w3.org/2000/svg" version="1.1" viewBox="0 0 500 500">
  <!-- Generator: Adobe Illustrator 30.0.0, SVG Export Plug-In . SVG Version: 2.1.1 Build 123)  -->
  <defs>
    <style>
      .st0 {
        fill: #e6edf4;
        stroke: #e6edf4;
        stroke-miterlimit: 10;
      }
    </style>
  </defs>
  <path class="st0" d="M7,225.61h104.18c1.15,0,2.07-.98,2.09-2.23.17-33.02.17-73.19,0-120.44-.03-9.52.96-15.89,2.96-19.09,4.97-7.88,12.18-9.81,21.38-9.84,22.72-.08,66.87-.05,132.39.13.79,0,1.47-.56,1.67-1.36h0c1.2-4.56,1.73-9.07,1.55-13.56-.56-16.8-.53-29.34.03-37.62,1.2-16.61,11.45-19.02,25.02-19.42,13.48-.39,41.12-.32,82.94.21,19.94.26,25.48,24.12,11.19,36.93-.67.58-1.43.98-2.26,1.23-4.51,1.14-11.13,1.64-19.86,1.51-21.93-.35-41.3-.35-58.15,0-2.05.05-3.66,1.83-3.66,4.04v81.57c0,.95.71,1.73,1.6,1.75,17.69.3,41.1.26,70.18-.08,26.39-.32,26.36,38.87,1.18,39.63-32.24,1.01-61.8.98-88.66-.05-17.72-.69-20.18-13.58-19.79-30.9.24-11.06.35-18.7.29-22.92-.03-1.14-.88-2.07-1.94-2.07-44.32.21-82.91.19-115.78-.05-4.08-.02-6.12,1.88-6.1,5.73.24,130.14.32,207.49.23,232.05-.03,2.46,1.85,4.49,4.13,4.49h116.04c1.55,0,2.85-1.3,2.98-2.98.2-2.74.24-26.82.15-72.26-.05-23.61,13.88-25.65,33.37-25.59,67.51.13,120.44.13,158.86,0,15.53-.05,27.27,1.73,28.77,19.68.08.82,0,1.64-.17,2.44-2.63,11.62-10.16,17.4-22.55,17.34-46.81-.19-99.76-.24-158.87-.15-2.14,0-3.86,1.86-3.86,4.17v157.67c0,1.75,1.31,3.15,2.93,3.13,57.85-.32,110.52-.37,157.96-.19,10.19.02,17.16,3.21,20.89,9.55,8.81,14.88-.49,30.02-16.69,30-55.94-.08-116.21-.13-180.75-.15-13.21,0-19.81-7.64-19.79-22.89.05-35.31.03-61.57-.08-78.78-.03-1.25-.96-2.25-2.11-2.25-49.61.11-92.49.13-128.64.05-12.97-.02-21.95-.71-27.19-12.59-1.2-2.68-1.77-7.13-1.75-13.34.2-56.56.12-89.9-.2-100.03-.05-1.77-1.4-3.21-3.05-3.21H8.08"/>
</svg>